HIERARCHY
ROOT Hips
{
	OFFSET 0.00000 0.00000 0.00000
	CHANNELS 6 Xposition Yposition Zposition Zrotation Yrotation Xrotation 
	JOINT LHipJoint
	{
		OFFSET 0 0 0
		CHANNELS 3 Zrotation Yrotation Xrotation
		JOINT LeftHip
		{
			OFFSET 1.53927 -1.56553 0.51726
			CHANNELS 3 Zrotation Yrotation Xrotation
			JOINT LeftKnee
			{
				OFFSET 2.38199 -6.54447 0.00000
				CHANNELS 3 Zrotation Yrotation Xrotation
				JOINT LeftAnkle
				{
					OFFSET 2.35499 -6.47028 0.00000
					CHANNELS 3 Zrotation Yrotation Xrotation
					JOINT LeftToe
					{
						OFFSET 0.13641 -0.37478 1.84251
						CHANNELS 3 Zrotation Yrotation Xrotation
						End Site
						{
							OFFSET 0.00000 -0.00000 0.95212
						}
					}
				}
			}
		}
	}
	JOINT RHipJoint
	{
		OFFSET 0 0 0
		CHANNELS 3 Zrotation Yrotation Xrotation
		JOINT RightHip
		{
			OFFSET -1.43919 -1.56553 0.51726
			CHANNELS 3 Zrotation Yrotation Xrotation
			JOINT RightKnee
			{
				OFFSET -2.34860 -6.45274 0.00000
				CHANNELS 3 Zrotation Yrotation Xrotation
				JOINT RightAnkle
				{
					OFFSET -2.25563 -6.19730 0.00000
					CHANNELS 3 Zrotation Yrotation Xrotation
					JOINT RightToe
					{
						OFFSET -0.19755 -0.54277 1.84912
						CHANNELS 3 Zrotation Yrotation Xrotation
						End Site
						{
							OFFSET -0.00000 -0.00000 0.97032
						}
					}
				}
			}
		}
	}
	JOINT lowerback
	{
		OFFSET 0 0 0
		CHANNELS 3 Zrotation Yrotation Xrotation
		JOINT Chest
		{
			OFFSET -0.06402 1.88434 -0.00445
			CHANNELS 3 Zrotation Yrotation Xrotation
			JOINT Chest2
			{
				OFFSET 0.00756 1.88511 0.04237
				CHANNELS 3 Zrotation Yrotation Xrotation
				JOINT lowerneck
				{
					OFFSET 0 0 0
					CHANNELS 3 Zrotation Yrotation Xrotation
					JOINT Neck
					{
						OFFSET -0.06230 1.34710 0.03308
						CHANNELS 3 Zrotation Yrotation Xrotation
						JOINT Head
						{
							OFFSET -0.02442 1.34501 -0.13654
							CHANNELS 3 Zrotation Yrotation Xrotation
							End Site
							{
								OFFSET -0.00508 1.35584 -0.05075
							}
						}
					}
				}
				JOINT LeftCollar
				{
					OFFSET 0 0 0
					CHANNELS 3 Zrotation Yrotation Xrotation
					JOINT LeftShoulder
					{
						OFFSET 2.76911 0.54460 0.39412
CHANNELS 3 Zrotation Xrotation Yrotation
						JOINT LeftElbow
						{
OFFSET 0 -4.409190 -0.000000
CHANNELS 3 Zrotation Xrotation Yrotation
							JOINT LeftWrist
							{
OFFSET 0 -3.038570 -0.000000
CHANNELS 3 Zrotation Xrotation Yrotation
								JOINT lhand
								{
									OFFSET 0 0 0
CHANNELS 3 Zrotation Xrotation Yrotation
									JOINT LFingers
									{
OFFSET 0 -0.523210 -0.000000
CHANNELS 3 Zrotation Xrotation Yrotation
										End Site
										{
OFFSET 0 -0.421820 -0.000000
										}
									}
								}
								JOINT LThumb
								{
OFFSET 0 0.000000 0.000000
CHANNELS 3 Zrotation Xrotation Yrotation
									End Site
									{
OFFSET 0 -0.428260 0.428260
									}
								}
							}
						}
					}
				}
				JOINT RightCollar
				{
					OFFSET 0 0 0
					CHANNELS 3 Zrotation Yrotation Xrotation
					JOINT RightShoulder
					{
						OFFSET -2.99050 0.75949 0.48975
CHANNELS 3 Zrotation Xrotation Yrotation
						JOINT RightElbow
						{
OFFSET 0 -4.619690 -0.000000
CHANNELS 3 Zrotation Xrotation Yrotation
							JOINT RightWrist
							{
OFFSET 0 -3.093820 -0.000000
CHANNELS 3 Zrotation Xrotation Yrotation
								JOINT rhand
								{
									OFFSET 0 0 0
CHANNELS 3 Zrotation Xrotation Yrotation
									JOINT RFingers
									{
OFFSET 0 -0.500900 -0.000000
CHANNELS 3 Zrotation Xrotation Yrotation
										End Site
										{
OFFSET 0 -0.403840 -0.000000
										}
									}
								}
								JOINT RThumb
								{
OFFSET 0 0.000000 0.000000
CHANNELS 3 Zrotation Xrotation Yrotation
									End Site
									{
OFFSET 0 -0.410000 0.410000
									}
								}
							}
						}
					}
				}
			}
		}
	}
}
MOTION
Frames: 5
Frame Time: 0.008333333333333333
3.724580 15.124534 -2.259252 16.334742 -80.968666 -1.664759 0.000000 0.000000 0.000000 -1.439806 -24.807197 -46.058234 10.359395 17.605830 60.681188 0.422289 1.170679 -12.755674 0.000035 0.000607 0.001706 0.000000 0.000000 0.000000 15.098087 10.023902 -44.307940 -7.763464 -15.942485 51.706071 -1.464948 -3.650481 -24.430159 -0.710833 -5.386311 15.014246 -3.176943 -0.595870 16.281205 0.305635 -1.474589 4.454386 2.416370 -0.792267 -4.286536 -7.778375 -7.918881 -1.607637 10.647400 -10.107241 -13.480627 4.624562 -5.287247 -2.758667 0.000000 0.000000 0.000000 -22.053671 -60.645133 -85.215127 151.749084 -39.346249 109.717577 47.326006 2.115953 5.515293 0.000000 0.000000 0.000000 -7.125000 0.000000 0.000000 14.925487 21.954322 8.550098 0.000000 0.000000 0.000000 -37.543631 -70.160901 11.323304 -155.546138 -35.640474 -112.030529 -13.151625 -3.146526 41.293075 0.000000 0.000000 0.000000 7.125000 0.000000 0.000000 33.753595 69.288267 -20.447956
3.738643 15.114528 -2.238535 16.199496 -81.146495 -1.434522 0.000000 0.000000 0.000000 -1.420262 -24.766588 -46.251637 10.625510 17.746705 61.559000 0.425534 1.123892 -12.780451 0.000259 0.051442 0.141338 0.000000 0.000000 0.000000 15.037597 10.095451 -44.537341 -7.779989 -15.955047 51.766198 -1.444286 -3.620291 -24.256389 -0.657464 -5.186076 14.440101 -2.972539 -0.585526 16.235332 0.277824 -1.427531 4.442670 2.261223 -0.769720 -4.283672 -8.108039 -7.938427 -1.739733 11.169464 -10.086894 -13.375881 4.821117 -5.281610 -2.656313 0.000000 0.000000 0.000000 -22.361415 -60.724870 -85.646195 151.767484 -39.329449 109.729246 47.446137 1.928678 5.410496 0.000000 0.000000 0.000000 -7.125000 0.000000 0.000000 15.032253 22.085368 8.568941 0.000000 0.000000 0.000000 -38.278277 -70.328571 10.437412 -155.530276 -35.657004 -112.021319 -13.369789 -3.031867 41.168839 0.000000 0.000000 0.000000 7.125000 0.000000 0.000000 33.302004 69.260446 -20.132140
3.754339 15.103347 -2.217492 15.868293 -81.347759 -0.992271 0.000000 0.000000 0.000000 -1.376370 -24.691514 -46.450261 10.893584 17.881575 62.434267 0.436091 1.168687 -12.952684 0.002898 -0.278997 -0.766570 0.000000 0.000000 0.000000 15.004261 10.191152 -44.784302 -7.796449 -15.967478 51.826063 -1.427410 -3.575219 -24.103115 -0.628573 -5.072527 14.115635 -2.816764 -0.592610 16.222553 0.308173 -1.408086 4.388916 2.201705 -0.758399 -4.338120 -8.329998 -7.913911 -1.775221 11.476707 -10.028557 -13.355602 4.946194 -5.255150 -2.618255 0.000000 0.000000 0.000000 -22.637892 -60.802584 -85.927325 151.773873 -39.323616 109.733344 47.436761 1.998196 5.077626 0.000000 0.000000 0.000000 -7.125000 0.000000 0.000000 15.101355 22.557414 8.441502 0.000000 0.000000 0.000000 -38.715529 -70.541085 9.928419 -155.496593 -35.692006 -112.001665 -13.883782 -2.665246 41.229399 0.000000 0.000000 0.000000 7.125000 0.000000 0.000000 32.844474 69.474211 -19.986366
3.766804 15.096602 -2.198732 15.656270 -81.582101 -0.736778 0.000000 0.000000 0.000000 -1.360863 -24.605887 -46.544738 11.152526 18.007788 63.274603 0.455046 0.995710 -13.142405 0.006743 -0.514807 -1.414582 0.000000 0.000000 0.000000 14.983718 10.289825 -44.918028 -7.810668 -15.978187 51.877701 -1.418243 -3.477771 -23.983523 -0.614542 -5.017168 13.957555 -2.752259 -0.588021 16.261892 0.359843 -1.389372 4.345629 2.217778 -0.747381 -4.406480 -8.360116 -7.866697 -1.745197 11.560493 -9.958633 -13.396657 4.980305 -5.224081 -2.634898 0.000000 0.000000 0.000000 -22.946931 -60.930950 -86.215432 151.764068 -39.332556 109.727104 47.462790 2.098468 4.706681 0.000000 0.000000 0.000000 -7.125000 0.000000 0.000000 15.204139 23.079379 8.313245 0.000000 0.000000 0.000000 -38.980148 -70.774102 9.638318 -155.482852 -35.706334 -111.993640 -14.289104 -2.326448 41.476503 0.000000 0.000000 0.000000 7.125000 0.000000 0.000000 32.837086 69.801771 -20.216049
3.776978 15.092649 -2.181257 15.596265 -81.830742 -0.674815 0.000000 0.000000 0.000000 -1.372767 -24.523276 -46.569099 11.402571 18.126107 64.081664 0.478431 0.643857 -13.317205 0.009461 -0.615888 -1.692420 0.000000 0.000000 0.000000 14.957223 10.387513 -44.982056 -7.823266 -15.987665 51.923413 -1.413711 -3.351103 -23.885422 -0.607958 -4.990658 13.882013 -2.757258 -0.577812 16.318547 0.424407 -1.375126 4.318230 2.287969 -0.739001 -4.464905 -8.278471 -7.802752 -1.685484 11.503265 -9.877808 -13.474986 4.957905 -5.187736 -2.683588 0.000000 0.000000 0.000000 -23.268148 -61.099250 -86.515401 151.750404 -39.345009 109.718403 47.516887 2.241375 4.296092 0.000000 0.000000 0.000000 -7.125000 0.000000 0.000000 15.336026 23.654779 8.179528 0.000000 0.000000 0.000000 -39.178914 -71.031819 9.443701 -155.476567 -35.712934 -111.989958 -14.505836 -2.106210 41.801285 0.000000 0.000000 0.000000 7.125000 0.000000 0.000000 33.176174 70.129729 -20.674361
